<?xml version="1.0" encoding="UTF-8"?>
<svg version="1.1" xmlns="http://www.w3.org/2000/svg" width="632" height="632">
<path d="M0 0 C4.52714525 2.951284 8.27482916 6.36961314 11.8125 10.4375 C12.58400391 11.31148437 12.58400391 11.31148437 13.37109375 12.203125 C14.49868657 13.49025733 15.62072837 14.78226593 16.73828125 16.078125 C19.33879095 19.03614357 22.00981019 21.92442625 24.6875 24.8125 C29.01014932 29.47676296 33.29066757 34.17444285 37.53515625 38.91015625 C40.11059775 41.76832203 42.70935764 44.60460261 45.3125 47.4375 C49.40419207 51.89082617 53.46072977 56.37409888 57.5 60.875 C60.08865003 63.74350409 62.69835146 66.5922665 65.3125 69.4375 C69.40416107 73.89085487 73.46072946 78.37409854 77.5 82.875 C80.08865003 85.74350409 82.69835146 88.5922665 85.3125 91.4375 C89.40416107 95.89085487 93.46072946 100.37409854 97.5 104.875 C100.08865003 107.74350409 102.69835146 110.5922665 105.3125 113.4375 C109.40416107 117.89085487 113.46072946 122.37409854 117.5 126.875 C120.08865003 129.74350409 122.69835146 132.5922665 125.3125 135.4375 C129.40416107 139.89085487 133.46072946 144.37409854 137.5 148.875 C140.08865019 151.74350427 142.69837127 154.59224816 145.3125 157.4375 C149.42266239 161.91155711 153.50859753 166.40574229 157.55078125 170.94140625 C159.14671897 172.70272611 160.77220331 174.4374907 162.41796875 176.15234375 C171.42831017 185.64181706 175.6040951 192.67060243 175.40063477 205.82006836 C174.95020371 214.90201554 172.03368797 220.61707808 165.4375 226.875 C159.45988103 232.0809627 153.96493996 233.81769784 146.13305664 233.77807617 C145.40051666 233.77851425 144.66797668 233.77895233 143.91323853 233.77940369 C141.51609705 233.77733037 139.11967401 233.75406967 136.72265625 233.73046875 C135.05114626 233.72486758 133.37963132 233.72059994 131.70811462 233.71760559 C127.32683512 233.70619778 122.945858 233.67676601 118.56469727 233.64349365 C114.0867929 233.61270476 109.60883927 233.59908147 105.13085938 233.58398438 C96.35793477 233.55189204 87.58525509 233.50074541 78.8125 233.4375 C78.8143986 234.03252221 78.8162972 234.62754442 78.81825334 235.24059761 C78.9301915 270.52183811 79.01595688 305.803048 79.06782665 341.0844292 C79.07408003 345.32256247 79.08055166 349.56069539 79.0871582 353.79882812 C79.08846976 354.642549 79.08978131 355.48626988 79.0911326 356.35555805 C79.11287751 370.00939554 79.15229397 383.66312755 79.19826398 397.3169025 C79.24505412 411.331358 79.2728008 425.34575834 79.28294247 439.36028874 C79.28979635 448.00510417 79.31142808 456.64962146 79.35208233 465.2943451 C79.37855232 471.22577542 79.3864914 477.15705206 79.38000689 483.08853714 C79.37681054 486.50863039 79.38164165 489.92820339 79.40852737 493.34820366 C79.43345465 497.06294216 79.42740434 500.77641171 79.41377258 504.49118042 C79.42833679 505.56319037 79.442901 506.63520033 79.45790654 507.73969543 C79.37463954 516.15160279 77.05253239 522.59640153 71.6015625 529.05859375 C70.88742187 529.65800781 70.17328125 530.25742187 69.4375 530.875 C68.72851562 531.49246094 68.01953125 532.10992188 67.2890625 532.74609375 C59.64601221 537.96603188 52.81444304 537.87949851 43.77416992 537.85742188 C42.35095049 537.86476958 40.927737 537.87335784 39.50453186 537.88308716 C35.65310498 537.9052406 31.80189245 537.90823688 27.9504106 537.90633965 C24.72751206 537.90621964 21.50465843 537.91479639 18.28177243 537.92311716 C10.67308778 537.9423298 3.06451281 537.9452432 -4.54418945 537.93847656 C-12.37471884 537.93184031 -20.20477665 537.95468799 -28.03521043 537.99179029 C-34.77433307 538.02255466 -41.51330455 538.03383996 -48.25249594 538.02995348 C-52.27032577 538.02789256 -56.28778865 538.03326242 -60.30555153 538.05784607 C-64.08724244 538.08022212 -67.8681707 538.07814665 -71.6498661 538.05791855 C-73.68517365 538.05292054 -75.72049611 538.07244938 -77.75570679 538.09292603 C-86.97999833 538.00900954 -93.69166074 536.22981747 -100.80859375 530.2265625 C-101.70771484 529.15535156 -101.70771484 529.15535156 -102.625 528.0625 C-103.55119141 526.99902344 -103.55119141 526.99902344 -104.49609375 525.9140625 C-109.27469715 518.91721595 -109.61532281 513.14558568 -109.54826355 504.85194397 C-109.55082682 503.69031768 -109.5533901 502.52869139 -109.55603105 501.3318643 C-109.56010801 498.12089792 -109.55077103 494.91029768 -109.53569686 491.69937456 C-109.52271205 488.23184458 -109.52712769 484.76433091 -109.52940369 481.29678345 C-109.53097488 475.29346256 -109.52158183 469.29023967 -109.50469017 463.28694344 C-109.4802838 454.60725743 -109.47249323 445.92761869 -109.4687262 437.24790209 C-109.46216428 423.16483431 -109.44221017 409.08181874 -109.41381836 394.9987793 C-109.38627107 381.32039653 -109.36504077 367.64202796 -109.35229492 353.96362305 C-109.35150675 353.12014236 -109.35071858 352.27666168 -109.34990653 351.40762097 C-109.34599134 347.17602334 -109.34220024 342.9444256 -109.33847082 338.7128278 C-109.307383 303.62101466 -109.25455427 268.52926215 -109.1875 233.4375 C-110.1048996 233.44860306 -111.02229919 233.45970612 -111.96749878 233.47114563 C-120.64682688 233.57166219 -129.32595725 233.64762409 -138.0057354 233.69656086 C-142.46729398 233.72256644 -146.92836842 233.75779711 -151.38964844 233.81469727 C-155.70150583 233.8693425 -160.0128999 233.89898839 -164.32507706 233.91188622 C-165.96362722 233.92106819 -167.60215431 233.93899774 -169.24050522 233.96615028 C-179.96491057 234.13668942 -188.29201461 233.41044296 -196.80859375 226.2265625 C-197.40800781 225.51242187 -198.00742188 224.79828125 -198.625 224.0625 C-199.24246094 223.35351562 -199.85992187 222.64453125 -200.49609375 221.9140625 C-204.5647495 215.9567236 -205.74716755 210.66427877 -205.6875 203.625 C-205.68105469 202.83109863 -205.67460937 202.03719727 -205.66796875 201.21923828 C-205.39120394 192.31724387 -202.55317125 186.62601955 -196.3125 180.3125 C-195.61898437 179.66410156 -194.92546875 179.01570312 -194.2109375 178.34765625 C-192.31935158 176.56196992 -190.62782364 174.72479274 -188.9375 172.75 C-185.8071564 169.11222628 -182.57512232 165.58110408 -179.3125 162.0625 C-174.98982453 157.39826165 -170.70933195 152.70055663 -166.46484375 147.96484375 C-163.88940225 145.10667797 -161.29064236 142.27039739 -158.6875 139.4375 C-155.33456883 135.78822829 -151.99751643 132.12580402 -148.6875 128.4375 C-144.91212783 124.23065673 -141.09769552 120.06075147 -137.2734375 115.8984375 C-134.39327393 112.76082914 -131.53218386 109.60729059 -128.6875 106.4375 C-124.91212783 102.23065673 -121.09769552 98.06075147 -117.2734375 93.8984375 C-114.39327393 90.76082914 -111.53218386 87.60729059 -108.6875 84.4375 C-104.91212783 80.23065673 -101.09769552 76.06075147 -97.2734375 71.8984375 C-94.39327393 68.76082914 -91.53218386 65.60729059 -88.6875 62.4375 C-84.91212783 58.23065673 -81.09769552 54.06075147 -77.2734375 49.8984375 C-74.39327393 46.76082914 -71.53218386 43.60729059 -68.6875 40.4375 C-65.37748304 36.74919539 -62.0403804 33.08681879 -58.6875 29.4375 C-55.31495053 25.76636064 -51.95697085 22.08306632 -48.625 18.375 C-47.90054688 17.57578125 -47.17609375 16.7765625 -46.4296875 15.953125 C-44.84495122 14.1751282 -43.29030335 12.37009563 -41.7578125 10.546875 C-31.04355299 -1.93640556 -15.7476221 -8.09131964 0 0 Z " fill="#000000" transform="translate(331.1875,48.5625)"/>
<path d="M0 0 C4.52714525 2.951284 8.27482916 6.36961314 11.8125 10.4375 C12.58400391 11.31148437 12.58400391 11.31148437 13.37109375 12.203125 C14.49868657 13.49025733 15.62072837 14.78226593 16.73828125 16.078125 C19.33879095 19.03614357 22.00981019 21.92442625 24.6875 24.8125 C29.01014932 29.47676296 33.29066757 34.17444285 37.53515625 38.91015625 C40.11059775 41.76832203 42.70935764 44.60460261 45.3125 47.4375 C49.40419207 51.89082617 53.46072977 56.37409888 57.5 60.875 C60.08865003 63.74350409 62.69835146 66.5922665 65.3125 69.4375 C69.40416107 73.89085487 73.46072946 78.37409854 77.5 82.875 C80.08865003 85.74350409 82.69835146 88.5922665 85.3125 91.4375 C89.40416107 95.89085487 93.46072946 100.37409854 97.5 104.875 C100.08865003 107.74350409 102.69835146 110.5922665 105.3125 113.4375 C109.40416107 117.89085487 113.46072946 122.37409854 117.5 126.875 C120.08865003 129.74350409 122.69835146 132.5922665 125.3125 135.4375 C129.40416107 139.89085487 133.46072946 144.37409854 137.5 148.875 C140.08865019 151.74350427 142.69837127 154.59224816 145.3125 157.4375 C149.42266239 161.91155711 153.50859753 166.40574229 157.55078125 170.94140625 C159.14671897 172.70272611 160.77220331 174.4374907 162.41796875 176.15234375 C171.42831017 185.64181706 175.6040951 192.67060243 175.40063477 205.82006836 C174.95020371 214.90201554 172.03368797 220.61707808 165.4375 226.875 C159.45988103 232.0809627 153.96493996 233.81769784 146.13305664 233.77807617 C145.40051666 233.77851425 144.66797668 233.77895233 143.91323853 233.77940369 C141.51609705 233.77733037 139.11967401 233.75406967 136.72265625 233.73046875 C135.05114626 233.72486758 133.37963132 233.72059994 131.70811462 233.71760559 C127.32683512 233.70619778 122.945858 233.67676601 118.56469727 233.64349365 C114.0867929 233.61270476 109.60883927 233.59908147 105.13085938 233.58398438 C96.35793477 233.55189204 87.58525509 233.50074541 78.8125 233.4375 C78.8143986 234.03252221 78.8162972 234.62754442 78.81825334 235.24059761 C78.9301915 270.52183811 79.01595688 305.803048 79.06782665 341.0844292 C79.07408003 345.32256247 79.08055166 349.56069539 79.0871582 353.79882812 C79.08846976 354.642549 79.08978131 355.48626988 79.0911326 356.35555805 C79.11287751 370.00939554 79.15229397 383.66312755 79.19826398 397.3169025 C79.24505412 411.331358 79.2728008 425.34575834 79.28294247 439.36028874 C79.28979635 448.00510417 79.31142808 456.64962146 79.35208233 465.2943451 C79.37855232 471.22577542 79.3864914 477.15705206 79.38000689 483.08853714 C79.37681054 486.50863039 79.38164165 489.92820339 79.40852737 493.34820366 C79.43345465 497.06294216 79.42740434 500.77641171 79.41377258 504.49118042 C79.42833679 505.56319037 79.442901 506.63520033 79.45790654 507.73969543 C79.37463954 516.15160279 77.05253239 522.59640153 71.6015625 529.05859375 C70.88742187 529.65800781 70.17328125 530.25742187 69.4375 530.875 C68.72851562 531.49246094 68.01953125 532.10992188 67.2890625 532.74609375 C59.64601221 537.96603188 52.81444304 537.87949851 43.77416992 537.85742188 C42.35095049 537.86476958 40.927737 537.87335784 39.50453186 537.88308716 C35.65310498 537.9052406 31.80189245 537.90823688 27.9504106 537.90633965 C24.72751206 537.90621964 21.50465843 537.91479639 18.28177243 537.92311716 C10.67308778 537.9423298 3.06451281 537.9452432 -4.54418945 537.93847656 C-12.37471884 537.93184031 -20.20477665 537.95468799 -28.03521043 537.99179029 C-34.77433307 538.02255466 -41.51330455 538.03383996 -48.25249594 538.02995348 C-52.27032577 538.02789256 -56.28778865 538.03326242 -60.30555153 538.05784607 C-64.08724244 538.08022212 -67.8681707 538.07814665 -71.6498661 538.05791855 C-73.68517365 538.05292054 -75.72049611 538.07244938 -77.75570679 538.09292603 C-86.97999833 538.00900954 -93.69166074 536.22981747 -100.80859375 530.2265625 C-101.70771484 529.15535156 -101.70771484 529.15535156 -102.625 528.0625 C-103.55119141 526.99902344 -103.55119141 526.99902344 -104.49609375 525.9140625 C-109.27469715 518.91721595 -109.61532281 513.14558568 -109.54826355 504.85194397 C-109.55082682 503.69031768 -109.5533901 502.52869139 -109.55603105 501.3318643 C-109.56010801 498.12089792 -109.55077103 494.91029768 -109.53569686 491.69937456 C-109.52271205 488.23184458 -109.52712769 484.76433091 -109.52940369 481.29678345 C-109.53097488 475.29346256 -109.52158183 469.29023967 -109.50469017 463.28694344 C-109.4802838 454.60725743 -109.47249323 445.92761869 -109.4687262 437.24790209 C-109.46216428 423.16483431 -109.44221017 409.08181874 -109.41381836 394.9987793 C-109.38627107 381.32039653 -109.36504077 367.64202796 -109.35229492 353.96362305 C-109.35150675 353.12014236 -109.35071858 352.27666168 -109.34990653 351.40762097 C-109.34599134 347.17602334 -109.34220024 342.9444256 -109.33847082 338.7128278 C-109.307383 303.62101466 -109.25455427 268.52926215 -109.1875 233.4375 C-110.1048996 233.44860306 -111.02229919 233.45970612 -111.96749878 233.47114563 C-120.64682688 233.57166219 -129.32595725 233.64762409 -138.0057354 233.69656086 C-142.46729398 233.72256644 -146.92836842 233.75779711 -151.38964844 233.81469727 C-155.70150583 233.8693425 -160.0128999 233.89898839 -164.32507706 233.91188622 C-165.96362722 233.92106819 -167.60215431 233.93899774 -169.24050522 233.96615028 C-179.96491057 234.13668942 -188.29201461 233.41044296 -196.80859375 226.2265625 C-197.40800781 225.51242187 -198.00742188 224.79828125 -198.625 224.0625 C-199.24246094 223.35351562 -199.85992187 222.64453125 -200.49609375 221.9140625 C-204.5647495 215.9567236 -205.74716755 210.66427877 -205.6875 203.625 C-205.68105469 202.83109863 -205.67460937 202.03719727 -205.66796875 201.21923828 C-205.39120394 192.31724387 -202.55317125 186.62601955 -196.3125 180.3125 C-195.61898437 179.66410156 -194.92546875 179.01570312 -194.2109375 178.34765625 C-192.31935158 176.56196992 -190.62782364 174.72479274 -188.9375 172.75 C-185.8071564 169.11222628 -182.57512232 165.58110408 -179.3125 162.0625 C-174.98982453 157.39826165 -170.70933195 152.70055663 -166.46484375 147.96484375 C-163.88940225 145.10667797 -161.29064236 142.27039739 -158.6875 139.4375 C-155.33456883 135.78822829 -151.99751643 132.12580402 -148.6875 128.4375 C-144.91212783 124.23065673 -141.09769552 120.06075147 -137.2734375 115.8984375 C-134.39327393 112.76082914 -131.53218386 109.60729059 -128.6875 106.4375 C-124.91212783 102.23065673 -121.09769552 98.06075147 -117.2734375 93.8984375 C-114.39327393 90.76082914 -111.53218386 87.60729059 -108.6875 84.4375 C-104.91212783 80.23065673 -101.09769552 76.06075147 -97.2734375 71.8984375 C-94.39327393 68.76082914 -91.53218386 65.60729059 -88.6875 62.4375 C-84.91212783 58.23065673 -81.09769552 54.06075147 -77.2734375 49.8984375 C-74.39327393 46.76082914 -71.53218386 43.60729059 -68.6875 40.4375 C-65.37748304 36.74919539 -62.0403804 33.08681879 -58.6875 29.4375 C-55.31495053 25.76636064 -51.95697085 22.08306632 -48.625 18.375 C-47.90054688 17.57578125 -47.17609375 16.7765625 -46.4296875 15.953125 C-44.84495122 14.1751282 -43.29030335 12.37009563 -41.7578125 10.546875 C-31.04355299 -1.93640556 -15.7476221 -8.09131964 0 0 Z M-37.1875 26.4375 C-39.00583154 28.45139427 -40.84642167 30.44440896 -42.6875 32.4375 C-46.04147911 36.08579962 -49.37749452 39.74920818 -52.6875 43.4375 C-56.46287217 47.64434327 -60.27730448 51.81424853 -64.1015625 55.9765625 C-66.98172607 59.11417086 -69.84281614 62.26770941 -72.6875 65.4375 C-76.46287217 69.64434327 -80.27730448 73.81424853 -84.1015625 77.9765625 C-86.98172607 81.11417086 -89.84281614 84.26770941 -92.6875 87.4375 C-96.46287217 91.64434327 -100.27730448 95.81424853 -104.1015625 99.9765625 C-106.98172607 103.11417086 -109.84281614 106.26770941 -112.6875 109.4375 C-116.46287217 113.64434327 -120.27730448 117.81424853 -124.1015625 121.9765625 C-126.98172607 125.11417086 -129.84281614 128.26770941 -132.6875 131.4375 C-136.46287217 135.64434327 -140.27730448 139.81424853 -144.1015625 143.9765625 C-146.98172607 147.11417086 -149.84281614 150.26770941 -152.6875 153.4375 C-156.46287217 157.64434327 -160.27730448 161.81424853 -164.1015625 165.9765625 C-167.71394198 169.91183624 -171.29228348 173.87606635 -174.8515625 177.859375 C-176.57839974 179.76524888 -178.32003331 181.64666149 -180.0859375 183.515625 C-180.58029297 184.04285156 -181.07464844 184.57007813 -181.58398438 185.11328125 C-182.9860586 186.60611061 -184.39517633 188.0923155 -185.8046875 189.578125 C-190.22543652 194.88302383 -191.77653468 199.17622658 -191.53125 205.97265625 C-190.95887371 210.07685439 -189.76094071 212.13821703 -187.1875 215.4375 C-181.82468498 219.16810367 -178.03872397 220.0120966 -171.59008789 219.89160156 C-170.76001221 219.89218567 -169.92993652 219.89276978 -169.07470703 219.89337158 C-166.35275282 219.89060254 -163.63191725 219.85956745 -160.91015625 219.828125 C-159.01444598 219.82065839 -157.11872797 219.81496744 -155.2230072 219.81097412 C-150.24981118 219.79575085 -145.27708744 219.75649767 -140.30407715 219.7121582 C-135.22296537 219.671134 -130.14177677 219.65294786 -125.06054688 219.6328125 C-115.10265785 219.59000011 -105.1451183 219.52178901 -95.1875 219.4375 C-95.18901888 220.05482107 -95.19053776 220.67214213 -95.19210267 221.3081699 C-95.28160607 257.89190561 -95.35024172 294.47562512 -95.39176132 331.05944789 C-95.39676417 335.4516601 -95.40194146 339.8438721 -95.40722656 344.23608398 C-95.40880043 345.54770492 -95.40880043 345.54770492 -95.41040608 346.88582324 C-95.42781349 361.04605497 -95.45935303 375.20622177 -95.49611118 389.36641497 C-95.53351126 403.89501416 -95.55573388 418.42357932 -95.56385398 432.95222467 C-95.56934369 441.91791275 -95.5866853 450.88341731 -95.61916587 459.84904891 C-95.64030223 465.99629941 -95.64670204 472.14345498 -95.64150551 478.29073919 C-95.63894234 481.83797403 -95.64288404 485.38488809 -95.6643219 488.93206596 C-95.68740105 492.77893112 -95.679452 496.62537845 -95.66851807 500.4723053 C-95.68599512 502.15179224 -95.68599512 502.15179224 -95.70382524 503.86520821 C-95.65442114 510.28294584 -95.04522661 514.23479318 -91.1875 519.4375 C-85.00275006 524.53958207 -78.58738843 524.00511881 -70.8359375 523.95507812 C-69.48666633 523.96050494 -68.13740109 523.96763074 -66.78814697 523.97631836 C-63.13929853 523.99448855 -59.49090461 523.98751067 -55.84204865 523.97480202 C-52.01496702 523.96464143 -48.18792308 523.97407616 -44.36083984 523.98034668 C-37.93515063 523.98761422 -31.5096456 523.97805897 -25.08398438 523.95898438 C-17.66582923 523.9372172 -10.2481139 523.94426922 -2.82996941 523.96629 C3.55073358 523.98446959 9.93130454 523.98698987 16.31202507 523.97653532 C20.11785969 523.97031439 23.9234879 523.96942593 27.72930908 523.98268127 C31.30821465 523.99427666 34.8865558 523.98614782 38.4654007 523.96310425 C40.39747858 523.95533336 42.32960446 523.96714159 44.26165771 523.97961426 C50.94570994 523.91465861 55.56127355 523.769476 60.8125 519.4375 C65.38643454 513.26888234 65.3717594 507.99104045 65.29351807 500.4723053 C65.29693577 499.26984348 65.30035347 498.06738167 65.30387473 496.82848161 C65.3093125 493.5032818 65.2968581 490.1790296 65.27676249 486.85394466 C65.25945373 483.26371438 65.2653366 479.67351223 65.26837158 476.08325195 C65.27046679 469.86709253 65.25793989 463.65110132 65.23542023 457.43498421 C65.2028821 448.44760331 65.19249136 439.46030358 65.18746826 430.47287016 C65.17871845 415.89064014 65.15211139 401.30849974 65.11425781 386.72631836 C65.0775296 372.56291146 65.04922181 358.39952891 65.03222656 344.23608398 C65.03065022 342.92605802 65.03065022 342.92605802 65.02904204 341.58956689 C65.0238218 337.20812861 65.01876699 332.82669015 65.01379442 328.44525158 C64.97234216 292.10927112 64.90190228 255.77339255 64.8125 219.4375 C65.86184219 219.44638245 66.91118439 219.45526489 67.99232483 219.4644165 C77.89404867 219.54559556 87.79570475 219.60551016 97.6976862 219.64474869 C102.7881008 219.66560002 107.87824618 219.69387295 112.96850586 219.73925781 C117.88332697 219.78280292 122.79788955 219.80665556 127.71288872 219.81700897 C129.58554591 219.82438478 131.45818938 219.83878811 133.33073616 219.86042023 C135.95916148 219.88956962 138.58652626 219.89345122 141.21508789 219.89160156 C141.98473373 219.90598267 142.75437958 219.92036377 143.54734802 219.93518066 C149.06663876 219.89331034 152.26635947 218.59998994 156.8125 215.4375 C160.53680311 210.66275242 161.47462288 206.89437826 161.19140625 200.85546875 C160.18850062 194.45548334 156.17904834 190.56035633 151.6484375 186.23046875 C149.86968818 184.49334973 148.24513597 182.6973899 146.625 180.8125 C143.47167569 177.15606103 140.21977248 173.60265799 136.9375 170.0625 C132.61485068 165.39823704 128.33433243 160.70055715 124.08984375 155.96484375 C121.51440225 153.10667797 118.91564236 150.27039739 116.3125 147.4375 C112.22080793 142.98417383 108.16427023 138.50090112 104.125 134 C101.53634997 131.13149591 98.92664854 128.2827335 96.3125 125.4375 C92.22083893 120.98414513 88.16427054 116.50090146 84.125 112 C81.53634997 109.13149591 78.92664854 106.2827335 76.3125 103.4375 C72.22083893 98.98414513 68.16427054 94.50090146 64.125 90 C61.53634997 87.13149591 58.92664854 84.2827335 56.3125 81.4375 C52.22083893 76.98414513 48.16427054 72.50090146 44.125 68 C41.53634997 65.13149591 38.92664854 62.2827335 36.3125 59.4375 C32.22083893 54.98414513 28.16427054 50.50090146 24.125 46 C21.53634916 43.13149502 18.92654942 40.28282527 16.3125 37.4375 C12.86134837 33.67888541 9.41959421 29.91241611 6 26.125 C5.27554688 25.32320312 4.55109375 24.52140625 3.8046875 23.6953125 C2.01862066 21.67110342 0.32055008 19.59967082 -1.375 17.5 C-4.58188977 13.79503743 -7.55528654 11.83188889 -12.5078125 11.08984375 C-24.37054906 10.38243285 -29.99475183 18.08275697 -37.1875 26.4375 Z " fill="#FEFEFE" transform="translate(331.1875,48.5625)"/>
</svg>
